<svg width="34" height="34" viewBox="0 0 34 34" fill="none" xmlns="http://www.w3.org/2000/svg">
<path d="M17.0017 0.333313C26.2066 0.333313 33.6683 7.79498 33.6683 17C33.6683 26.205 26.2066 33.6666 17.0017 33.6666C14.0563 33.6714 11.1627 32.8919 8.61832 31.4083L0.341651 33.6666L2.59498 25.3866C1.11014 22.8414 0.330064 19.9466 0.334984 17C0.334984 7.79498 7.79665 0.333313 17.0017 0.333313ZM11.3217 9.16665L10.9883 9.17998C10.7725 9.19312 10.5616 9.24981 10.3683 9.34665C10.1875 9.44903 10.0225 9.57702 9.87832 9.72665C9.67832 9.91498 9.56498 10.0783 9.44332 10.2366C8.82685 11.0382 8.49494 12.0222 8.49998 13.0333C8.50332 13.85 8.71665 14.645 9.04998 15.3883C9.73165 16.8916 10.8533 18.4833 12.3333 19.9583C12.69 20.3133 13.04 20.67 13.4167 21.0016C15.2556 22.6208 17.4471 23.7884 19.8167 24.4116L20.7633 24.5566C21.0717 24.5733 21.38 24.55 21.69 24.535C22.1754 24.5099 22.6493 24.3785 23.0783 24.15C23.2966 24.0376 23.5096 23.9152 23.7167 23.7833C23.7167 23.7833 23.7883 23.7366 23.925 23.6333C24.15 23.4666 24.2883 23.3483 24.475 23.1533C24.6133 23.01 24.7333 22.8416 24.825 22.65C24.955 22.3783 25.085 21.86 25.1383 21.4283C25.1783 21.0983 25.1666 20.9183 25.1616 20.8066C25.155 20.6283 25.0067 20.4433 24.845 20.365L23.875 19.93C23.875 19.93 22.425 19.2983 21.5383 18.895C21.4455 18.8545 21.3461 18.8313 21.245 18.8266C21.131 18.8149 21.0157 18.8278 20.9071 18.8643C20.7984 18.9008 20.6988 18.9601 20.615 19.0383C20.6066 19.035 20.495 19.13 19.29 20.59C19.2208 20.6829 19.1256 20.7532 19.0163 20.7917C18.9071 20.8303 18.7888 20.8355 18.6766 20.8066C18.5681 20.7775 18.4617 20.7408 18.3583 20.6966C18.1516 20.61 18.08 20.5766 17.9383 20.5166C16.9818 20.0992 16.0961 19.5352 15.3133 18.845C15.1033 18.6616 14.9083 18.4616 14.7083 18.2683C14.0526 17.6404 13.4812 16.93 13.0083 16.155L12.91 15.9966C12.8394 15.8903 12.7823 15.7755 12.74 15.655C12.6767 15.41 12.8417 15.2133 12.8417 15.2133C12.8417 15.2133 13.2467 14.77 13.435 14.53C13.6183 14.2966 13.7733 14.07 13.8733 13.9083C14.07 13.5916 14.1317 13.2666 14.0283 13.015C13.5617 11.875 13.0783 10.74 12.5817 9.61331C12.4833 9.38998 12.1917 9.22998 11.9267 9.19831C11.8367 9.18831 11.7466 9.17831 11.6566 9.17165C11.4328 9.16053 11.2085 9.16275 10.985 9.17831L11.32 9.16498L11.3217 9.16665Z" fill="#57687C"/>
</svg>
